<svg xmlns="http://www.w3.org/2000/svg" viewBox="0 0 685.7 164.76"><title>BeBroker svg</title><g id="Layer_2" data-name="Layer 2"><g id="Layer_1-2" data-name="Layer 1">
<path d="M148.64,58.1,78.45.85a3.72,3.72,0,0,0-4.73,0L36.19,31.46c15.07,0,30.44,0,45.51.05,11.8.06,20.62,5.61,25.76,16.09s4,20.7-3.44,29.9a30.33,30.33,0,0,1-13,9c-5.92,2.32-12.11,3-18.41,3.07-5.27.09-10.54.33-15.8.68-2.22.14-4.42.71-6.64,1.06a.82.82,0,0,0-.81,1,5.23,5.23,0,0,1,0,.56v46.72c0,1.3,0,1.29,1.27,1.29q15.59,0,31.16,0a32.49,32.49,0,0,0,11.28-1.73,23.69,23.69,0,0,0,12.06-9.41c5-7.67,6-16.07,4.32-24.92a29.08,29.08,0,0,0-5.94-12.92A35.5,35.5,0,0,0,101,89.21c-.4-.39-.42-.65,0-1q3.27-3,6.52-5.94c.41-.37.72-.31,1.1,0a39.16,39.16,0,0,1,11.16,19.59,43.18,43.18,0,0,1,.94,16c-1.16,9.13-4.58,17.23-11.34,23.67-6.18,5.88-13.66,8.75-22.08,9.33-1.58.1-3.16.14-4.73.15H40.26c-1.36,0-1.36,0-1.36-1.37V97.16c0-.36,0-.72-.06-1.2a4.86,4.86,0,0,0-.68.25c-5.2,2.88-9.75,6.51-13,11.58-3.76,5.93-5.72,12.36-4.8,19.45A29.07,29.07,0,0,0,24.46,138a42.49,42.49,0,0,0,5.62,7.69.79.79,0,0,1,.07,1.24c-1.8,2.12-3.57,4.27-5.33,6.42-.37.45-.65.42-1,0a51.43,51.43,0,0,1-11.48-17.9,33.21,33.21,0,0,1-1.68-16.59A40.78,40.78,0,0,1,29.13,90.18C32,88.39,35,86.85,38,85.27a1.54,1.54,0,0,0,1-1.6q0-17.53,0-35.08c0-1.29,0-1.29,1.28-1.29h8c1.17,0,1.17,0,1.17,1.15V79.68c0,.29,0,.59,0,.88,0,.61.22.81.82.69a92.8,92.8,0,0,1,18.44-1.63c1.8,0,3.59,0,5.38,0a34,34,0,0,0,13-2.26,21.11,21.11,0,0,0,10.32-8.2A16.5,16.5,0,0,0,99.5,56.32a18.18,18.18,0,0,0-7.83-11.61,19,19,0,0,0-11-3.07q-18.36,0-36.69,0H23.73L3.53,58.1A9.6,9.6,0,0,0,0,65.53v95.63a3.6,3.6,0,0,0,3.6,3.6h145a3.6,3.6,0,0,0,3.6-3.6V65.53A9.6,9.6,0,0,0,148.64,58.1Zm-15.48,97.32a8.77,8.77,0,1,1,8.77-8.76A8.76,8.76,0,0,1,133.16,155.42Z"/><path d="M249.12,105.9a23.11,23.11,0,0,1,9.68,6.64q4.26,4.75,4.26,12.5,0,9.08-5.92,13.5a30.55,30.55,0,0,1-13.27,5.7q-7.37,1.26-7.36.72H206.63q.78-12.84,1.22-22.46t.44-16.27q0-6.63-.44-16.26t-1.22-22.46h32.09c0-.37,1.95-.07,5.86.88A24,24,0,0,1,255.1,74q4.64,4.2,4.64,12.28,0,7.29-3.65,11.23a17.63,17.63,0,0,1-8.13,5.2,30,30,0,0,1-8.13,1.27A29.24,29.24,0,0,1,249.12,105.9Zm-8.57-32.64a11.89,11.89,0,0,0-9-4,13.15,13.15,0,0,0-8.3,2.65v29.88a17.72,17.72,0,0,0,5.64.88,15.64,15.64,0,0,0,10.85-4.09q4.53-4.09,4.53-13.39Q244.25,77.25,240.55,73.26ZM231,143.52a16.86,16.86,0,0,0,8-2,15.44,15.44,0,0,0,6.2-6.37q2.43-4.36,2.43-11.23,0-10.5-5.42-15a19.32,19.32,0,0,0-12.83-4.54,23.2,23.2,0,0,0-6.09.78v36.51A15.11,15.11,0,0,0,231,143.52Z"/><path d="M311.13,110.6q-14.33,9-23.18,14.55A31.6,31.6,0,0,0,297,138.76q6,5.09,12.5,5.09a51.51,51.51,0,0,0,6.25-.28,12.94,12.94,0,0,0,4.37-1.43,21.18,21.18,0,0,0,4.87-3.82l1.11,1.1A49.61,49.61,0,0,1,322.2,143a27.22,27.22,0,0,1-7.3,3.42,39.75,39.75,0,0,1-13.11,1.89q-10.85,0-17.76-3.93A23.86,23.86,0,0,1,274,133.89a32.63,32.63,0,0,1-3.15-14.38,38.12,38.12,0,0,1,3.48-16.1A29.14,29.14,0,0,1,285,91.07q7.25-4.75,17.87-4.75,8.85,0,14.27,3t7.58,6.69q2.16,3.66,1.39,4.65T311.13,110.6Zm-3-18.31q-2.49-3.77-8.58-3.76a13,13,0,0,0-10.12,4.92q-4.26,4.93-4.26,16.1a44.14,44.14,0,0,0,1.88,13,97.34,97.34,0,0,0,16.1-10.35q7.47-5.91,7.47-12.11A13.87,13.87,0,0,0,308.15,92.29Z"/><path d="M372.43,89.41a27.12,27.12,0,0,1,11.06,9.85q4.49,6.75,4.59,16.93a32.6,32.6,0,0,1-4.37,16.87,28.82,28.82,0,0,1-10.62,10.57,25.86,25.86,0,0,1-12.67,3.54,18.7,18.7,0,0,1-13.61-5.31,15.85,15.85,0,0,0,.34,3.1h-16.6c-.22,0-.24-.76-.06-2.27s.28-2.45.28-2.82a292.44,292.44,0,0,0,2-31.43Q332.66,98,332.15,89c-.33-6-.66-10.9-1-14.55s-.54-6-.61-6.91h17.7q-.33,0-1,7.74t-1,17.71q4.32-6.64,13.06-6.64A30.65,30.65,0,0,1,372.43,89.41ZM368.5,136q3.87-7.85,4.09-19.8a52.34,52.34,0,0,0-3.48-18.42q-3.27-8.13-12-8.13-5.31,0-7.85,2.71a11.4,11.4,0,0,0-3.1,6c-.07,2.43-.11,6.16-.11,11.17v5.2q0,13.27.55,23.24,3.33,5.87,10.51,5.86Q364.63,143.85,368.5,136Z"/><path d="M426.36,90.63a17.3,17.3,0,0,1,8.8,2.27,41.87,41.87,0,0,1,6.53,4.54c1.73,1.51,2.67,2.23,2.82,2.15-.22.22-1.05,1.33-2.49,3.32a31.09,31.09,0,0,1-5.15,5.53q-3,2.55-5.64,2.22H431a2,2,0,0,1-1.38-.56,2.1,2.1,0,0,1-.61-1.66,26.91,26.91,0,0,0,1.66-8.18c0-2.51-.59-4.35-1.77-5.54A5.91,5.91,0,0,0,424.59,93,7.45,7.45,0,0,0,418,96.27a18.43,18.43,0,0,0-4.53,9.3c0,3.1,0,5.53.11,7.3l-.22-.22c.07.15.14.22.22.22v6.2q0,8.52.5,14.27c.33,3.84.7,6.82,1.1,9s.61,3,.61,2.66H398c.07-.59.26-2.05.55-4.37s.61-5.7.94-10.13.57-9.55.72-15.38c-.15-5.82-.38-10.71-.72-14.66s-.64-6.82-.94-8.63-.48-2.89-.55-3.26h16.6q-.12.56-.39,2.88c-.19,1.55-.35,3.54-.5,6q3.21-6.3,10.84-6.64A10.44,10.44,0,0,1,426.36,90.63Z"/><path d="M496.07,89.19a26.4,26.4,0,0,1,11.39,10.18Q512,106.45,512,117.3q0,10.4-4.26,17.31a26.16,26.16,0,0,1-11.06,10.18,35.62,35.62,0,0,1-14.55,3.49,37.58,37.58,0,0,1-15.44-3.6,26.6,26.6,0,0,1-11.28-10.29q-4.26-6.91-4.26-17.09,0-10.74,4.64-17.76A27.53,27.53,0,0,1,467.58,89.3a32.76,32.76,0,0,1,14.55-3A31.19,31.19,0,0,1,496.07,89.19Zm-23.79,3.88a18.28,18.28,0,0,0-4.48,9.62,87.2,87.2,0,0,0-1.16,15.71,78.07,78.07,0,0,0,1.05,14.28,15.9,15.9,0,0,0,4.42,8.68c2.25,2.18,5.59,3.37,10,3.6q6.4-.22,9.57-3.49a15.35,15.35,0,0,0,4-8.57,99.24,99.24,0,0,0,.83-14.5,112,112,0,0,0-.94-16.7q-.94-5.86-4.09-9c-2.11-2.06-5.33-3.09-9.69-3.09Q475.6,89.64,472.28,93.07Z"/><path d="M535.9,114.86l-2.66,2.33q.33,9.51,1,17.53t.94,10.24h-17.7q.22-1.67.72-7.86t1-15.27q.5-9.06.49-17.81t-.49-16.87q-.51-8.13-1-13.22t-.72-6.42h17.7c-.15,1-.38,3.19-.72,6.69s-.66,8.06-1,13.67-.5,11.35-.5,17.26q0,6.2.11,9.18l27.55-24.67H564L544.64,107l27.11,38H557.36Z"/><path d="M618.71,110.6q-14.33,9-23.18,14.55a31.67,31.67,0,0,0,9.07,13.61c4,3.39,8.15,5.09,12.51,5.09a51.63,51.63,0,0,0,6.25-.28,12.94,12.94,0,0,0,4.37-1.43,21.39,21.39,0,0,0,4.87-3.82l1.1,1.1a47.85,47.85,0,0,1-3.92,3.55,27.33,27.33,0,0,1-7.31,3.42,39.75,39.75,0,0,1-13.11,1.89q-10.85,0-17.76-3.93a23.83,23.83,0,0,1-10.06-10.46,32.5,32.5,0,0,1-3.16-14.38,38,38,0,0,1,3.49-16.1A29.14,29.14,0,0,1,592.6,91.07q7.24-4.75,17.87-4.75,8.85,0,14.27,3t7.58,6.69q2.16,3.66,1.38,4.65T618.71,110.6Zm-3-18.31q-2.49-3.77-8.57-3.76A13,13,0,0,0,597,93.45q-4.26,4.93-4.26,16.1a44.14,44.14,0,0,0,1.88,13,97.34,97.34,0,0,0,16.1-10.35q7.46-5.91,7.46-12.11A13.87,13.87,0,0,0,615.72,92.29Z"/><path d="M667.56,90.63a17.26,17.26,0,0,1,8.79,2.27,41.4,41.4,0,0,1,6.53,4.54c1.73,1.51,2.67,2.23,2.82,2.15-.22.22-1.05,1.33-2.49,3.32a31,31,0,0,1-5.14,5.53q-3,2.55-5.64,2.22h-.23a2,2,0,0,1-1.38-.56,2.14,2.14,0,0,1-.61-1.66,26.91,26.91,0,0,0,1.66-8.18c0-2.51-.59-4.35-1.77-5.54A5.9,5.9,0,0,0,665.79,93a7.44,7.44,0,0,0-6.64,3.31,18.44,18.44,0,0,0-4.54,9.3q0,4.65.11,7.3l-.22-.22c.08.15.15.22.22.22v6.2q0,8.52.5,14.27c.33,3.84.7,6.82,1.11,9s.61,3,.61,2.66H639.23c.08-.59.26-2.05.56-4.37s.61-5.7.94-10.13.57-9.55.72-15.38q-.23-8.73-.72-14.66c-.33-3.94-.65-6.82-.94-8.63s-.48-2.89-.56-3.26h16.6q-.11.56-.39,2.88c-.18,1.55-.35,3.54-.49,6q3.19-6.3,10.84-6.64A10.44,10.44,0,0,1,667.56,90.63Z"/></g></g></svg>